<?xml version="1.0" standalone="no"?>
<!DOCTYPE svg PUBLIC "-//W3C//DTD SVG 20010904//EN"
 "http://www.w3.org/TR/2001/REC-SVG-20010904/DTD/svg10.dtd">
<svg version="1.0" xmlns="http://www.w3.org/2000/svg"
 width="1241.000000pt" height="873.000000pt" viewBox="0 0 1241.000000 873.000000"
 preserveAspectRatio="xMidYMid meet">

<g transform="translate(0.000000,873.000000) scale(0.100000,-0.100000)"
fill="#000000" stroke="none">
<path d="M0 4365 l0 -4365 6205 0 6205 0 0 4365 0 4365 -6205 0 -6205 0 0
-4365z m8397 3043 c4 -7 13 -33 18 -58 10 -44 11 -45 55 -51 39 -6 189 -4 273
2 29 2 56 -15 44 -27 -4 -4 -29 -9 -57 -12 -35 -3 -51 -9 -55 -22 -10 -33 -46
-55 -89 -56 -23 -1 -53 -7 -65 -14 -21 -11 -23 -17 -17 -59 7 -43 16 -189 20
-306 5 -146 4 -143 33 -157 23 -11 29 -23 38 -71 9 -53 14 -61 59 -95 71 -54
149 -160 214 -294 49 -100 60 -117 77 -113 11 3 54 14 95 25 149 39 287 49
410 30 336 -54 625 -274 757 -578 24 -55 32 -64 64 -72 69 -19 93 -70 110
-231 27 -276 -34 -556 -170 -777 -21 -34 -41 -50 -100 -79 -90 -43 -198 -147
-251 -241 -19 -34 -38 -62 -41 -62 -4 0 -10 12 -13 26 -24 93 -89 173 -175
213 -70 32 -186 35 -269 7 -29 -10 -62 -16 -73 -13 -25 7 -291 -19 -341 -33
-20 -6 -47 -23 -60 -39 l-24 -28 -29 25 c-28 24 -33 24 -125 18 -52 -3 -135
-11 -185 -17 -49 -6 -120 -10 -156 -9 -166 4 -318 -67 -423 -199 -27 -34 -55
-61 -62 -61 -7 0 -43 31 -81 69 -56 57 -78 72 -127 87 -35 11 -74 32 -97 54
l-38 35 10 97 c9 83 8 102 -6 131 -24 52 -65 71 -141 64 l-63 -6 -31 76 c-87
208 -126 539 -77 653 11 25 -247 100 -435 126 -62 8 -98 43 -98 93 0 49 14 67
130 160 190 153 365 257 523 309 49 17 90 32 92 34 3 2 -14 33 -35 69 -47 75
-50 106 -14 148 24 29 30 31 99 31 129 0 263 -36 402 -107 46 -23 83 -38 83
-32 0 6 23 57 51 114 55 112 140 226 207 277 40 31 42 35 42 86 0 58 13 92 35
92 12 0 13 21 8 133 -3 72 -10 140 -14 149 -5 9 -9 31 -9 47 0 17 -4 39 -10
49 -5 9 -12 43 -15 74 -6 56 -7 58 -41 64 -19 3 -49 4 -66 0 -24 -5 -37 -1
-55 16 -13 12 -23 28 -23 36 0 10 -11 13 -42 12 -65 -4 -78 -1 -78 14 0 18 50
30 88 22 28 -7 103 3 207 26 l60 14 5 49 c6 59 15 75 40 75 10 0 22 -6 27 -12z
m-1868 -1065 c35 16 73 22 155 25 l109 4 -44 -53 c-24 -30 -59 -71 -78 -91
l-34 -37 -60 31 -60 31 24 18 c58 43 60 49 7 20 -67 -36 -138 -43 -139 -13 0
13 -2 12 -9 -5 -5 -13 -16 -23 -25 -23 -13 0 -11 9 9 49 14 26 38 63 53 82
l28 33 9 -46 9 -46 46 21z m-2602 -376 c7 -7 -179 -1793 -188 -1801 -7 -8
-330 -39 -336 -33 -5 5 64 698 83 843 l6 42 -89 20 c-48 12 -122 24 -165 28
l-76 7 -31 -99 c-145 -461 -211 -986 -142 -1121 l20 -41 -52 -6 c-124 -15
-222 30 -265 122 -25 53 -27 66 -26 187 1 143 20 254 79 462 33 117 99 303
144 407 12 27 20 51 17 53 -7 7 -127 -27 -167 -47 -35 -19 -89 -73 -89 -90 0
-5 4 -11 9 -15 5 -3 15 -21 21 -41 17 -51 -1 -88 -54 -114 -82 -39 -176 -18
-211 49 -19 37 -20 111 -1 155 35 83 149 170 278 211 42 13 126 29 184 35 59
5 108 11 109 12 2 2 17 32 35 67 81 162 214 357 329 483 100 109 240 203 339
228 42 10 227 8 239 -3z m2689 -344 c-15 -110 -86 -809 -86 -839 0 -77 47
-112 125 -94 56 13 55 14 55 -27 0 -44 -31 -117 -63 -151 -56 -61 -188 -96
-273 -73 -62 17 -118 62 -146 119 l-25 50 -42 -58 c-80 -110 -184 -170 -307
-178 -120 -8 -192 32 -233 128 -12 27 -24 50 -26 50 -2 0 -11 -13 -20 -29 -27
-54 -122 -146 -178 -175 -140 -71 -312 -43 -399 65 -16 20 -39 61 -52 93 l-23
57 -43 -56 c-63 -81 -169 -177 -239 -214 -58 -31 -61 -34 -77 -89 -8 -31 -19
-69 -24 -84 -10 -32 -10 -32 54 -13 146 44 236 -13 223 -140 -10 -93 -63 -167
-157 -216 -40 -21 -59 -24 -160 -24 -88 0 -126 4 -163 18 l-47 19 17 30 c36
61 97 72 181 33 66 -31 83 -31 109 -2 46 50 32 135 -24 155 -32 10 -107 1
-142 -18 -11 -5 -22 -10 -24 -10 -3 0 10 60 29 133 18 72 34 135 34 138 0 3
-29 1 -64 -4 -133 -19 -274 29 -336 114 -58 81 -73 139 -78 304 -3 125 0 167
18 254 64 314 224 515 457 576 66 17 172 19 225 5 86 -24 141 -105 141 -210 1
-125 -63 -183 -169 -154 -21 5 -22 10 -17 84 8 118 -9 160 -67 160 -115 0
-240 -331 -240 -637 0 -227 56 -299 215 -273 123 20 217 76 301 181 l45 57 4
103 c15 381 188 683 436 760 76 24 198 25 240 4 16 -9 39 -30 49 -48 l20 -32
0 41 c0 66 7 69 185 87 88 9 161 14 163 12 3 -2 -17 -203 -42 -446 -26 -243
-44 -456 -40 -473 22 -107 158 -101 221 9 42 72 52 134 94 534 23 218 44 399
48 403 6 7 232 34 304 37 l39 1 -6 -47z m795 -1456 c-12 -102 -21 -191 -21
-196 0 -6 17 0 38 13 123 81 267 48 325 -76 35 -76 47 -143 47 -271 0 -380
-212 -630 -521 -615 -79 4 -94 8 -131 34 -24 16 -52 47 -64 67 l-21 38 -39
-53 c-76 -102 -181 -155 -289 -146 -67 6 -111 37 -139 99 l-23 48 -39 -55
c-86 -119 -211 -168 -339 -133 -52 14 -129 93 -146 148 -14 46 -23 51 -40 19
-22 -41 -114 -131 -173 -170 -80 -52 -169 -78 -266 -78 -119 0 -190 33 -240
113 l-18 28 -21 -35 c-34 -55 -125 -132 -177 -150 -26 -9 -75 -16 -109 -16
-79 0 -120 25 -156 97 l-27 52 -31 -49 c-63 -97 -155 -150 -261 -150 -123 1
-202 63 -241 191 -19 62 -21 87 -16 202 6 155 28 242 90 361 73 140 178 223
313 247 74 13 134 0 162 -36 22 -28 32 -23 32 16 0 22 6 30 23 33 34 8 248 28
251 24 2 -1 -14 -162 -34 -357 -44 -418 -42 -441 41 -441 44 0 99 41 117 87 6
16 13 89 16 163 2 77 12 163 21 200 22 85 83 214 126 267 88 109 218 168 354
161 88 -4 119 -22 153 -88 56 -111 -5 -235 -103 -209 l-30 8 3 71 c4 81 -13
120 -52 120 -58 0 -121 -100 -163 -257 -21 -82 -26 -122 -27 -243 -1 -121 2
-150 16 -177 25 -45 56 -63 108 -63 104 0 202 52 289 153 l41 48 0 84 c0 235
105 466 258 564 115 74 296 78 318 7 5 -15 8 -16 15 -5 5 8 9 26 9 40 l0 26
135 13 c75 7 137 11 139 9 1 -2 -15 -164 -35 -359 -40 -374 -40 -408 1 -430
37 -20 80 -12 114 23 62 61 70 101 126 632 28 270 55 497 59 505 5 9 58 27
137 45 l129 31 3 -21 c2 -12 -6 -106 -17 -208z m3329 172 c0 -7 -16 -164 -36
-351 -20 -187 -33 -355 -30 -374 8 -41 36 -58 86 -51 l37 5 -13 -46 c-24 -78
-59 -128 -104 -146 -94 -37 -183 -7 -232 81 l-30 54 -33 -49 c-122 -180 -348
-205 -458 -51 l-29 40 -27 -43 c-68 -106 -155 -153 -274 -147 -94 5 -136 31
-174 108 -32 65 -34 145 -9 336 23 173 22 275 -5 309 -47 60 -141 5 -172 -102
-9 -28 -30 -192 -48 -364 -18 -172 -36 -317 -40 -321 -5 -7 -213 -36 -263 -37
-5 0 -6 23 -3 51 l6 50 -54 -50 c-76 -69 -185 -103 -263 -82 -54 15 -96 51
-116 101 -9 22 -17 40 -19 40 -2 0 -20 -24 -40 -53 -76 -110 -194 -161 -313
-137 -48 10 -66 20 -109 64 -74 74 -90 131 -89 306 1 116 5 147 28 225 38 124
90 219 158 288 77 78 147 109 255 115 l83 4 35 -35 35 -35 0 39 c0 21 3 39 8
39 4 0 66 7 137 14 72 8 131 13 133 11 1 -1 -13 -152 -33 -335 -43 -403 -43
-413 -10 -445 29 -30 59 -32 102 -5 74 45 88 97 129 480 19 178 37 326 39 328
3 3 232 31 266 32 4 0 4 -21 2 -47 l-5 -48 43 41 c61 58 103 77 184 81 59 4
77 1 115 -19 109 -56 129 -165 84 -463 -23 -154 -23 -238 0 -264 23 -25 91
-29 123 -6 50 35 63 75 67 201 7 234 75 415 199 535 122 117 336 145 384 49
13 -25 13 -25 13 10 0 19 4 40 8 46 14 22 272 43 272 23z m-8376 -403 c107
-32 157 -103 164 -231 3 -72 1 -84 -20 -115 -38 -55 -132 -74 -182 -36 -14 10
-12 18 14 70 52 102 36 202 -37 232 -179 75 -355 -270 -370 -726 -9 -256 21
-384 103 -446 52 -40 159 -46 253 -14 74 25 157 77 199 124 27 31 29 41 35
142 12 199 77 377 178 488 108 118 318 175 428 117 51 -28 121 -151 121 -214
1 -55 31 -59 129 -16 56 24 52 11 72 226 l13 131 115 12 c64 6 126 13 139 16
23 5 23 4 16 -67 l-7 -72 35 26 c96 74 230 94 316 49 90 -48 132 -166 132
-369 -1 -363 -154 -593 -406 -610 -75 -5 -106 1 -165 34 -3 2 -17 -98 -29
-222 -13 -123 -27 -229 -30 -235 -7 -11 -245 -99 -268 -100 -9 0 -11 11 -7 38
10 63 114 1066 112 1069 -2 1 -30 -8 -62 -21 -33 -13 -67 -26 -76 -29 -12 -4
-17 -26 -22 -99 -7 -116 -27 -192 -74 -288 -43 -88 -125 -175 -197 -208 -169
-79 -361 -34 -421 98 -10 22 -21 40 -25 40 -4 0 -13 -12 -21 -26 -25 -48 -146
-150 -221 -187 -111 -54 -184 -70 -308 -65 -127 5 -189 28 -251 95 -49 53 -80
121 -105 228 -27 116 -25 390 4 532 71 347 232 565 463 627 70 19 203 20 263
2z m8345 -827 c26 -9 31 -16 31 -43 0 -53 -37 -95 -130 -146 -84 -47 -85 -48
-84 -86 1 -31 9 -44 40 -71 98 -84 112 -100 123 -149 10 -48 10 -50 -21 -76
-125 -108 -368 -125 -674 -48 -133 33 -243 82 -324 145 -75 58 -141 88 -255
117 -77 19 -116 23 -275 23 -204 0 -249 -10 -339 -75 -49 -36 -58 -66 -42
-140 25 -109 25 -132 -1 -169 -30 -45 -124 -95 -224 -122 -99 -26 -283 -29
-394 -5 -168 35 -236 78 -318 201 -52 78 -104 111 -210 135 -142 33 -371 7
-514 -58 -107 -49 -139 -85 -179 -200 -10 -30 -30 -70 -44 -87 -99 -130 -464
-242 -671 -206 -86 15 -158 54 -186 100 -18 29 -22 49 -21 111 2 90 -15 127
-72 154 -138 66 -389 33 -624 -80 -106 -52 -121 -63 -220 -163 -115 -116 -193
-169 -339 -229 -138 -56 -262 -83 -403 -89 -134 -6 -177 2 -223 38 -43 33 -31
128 20 170 40 33 74 92 74 130 0 46 -17 59 -105 84 -84 24 -113 41 -135 78
-35 57 -28 73 43 96 137 45 334 52 399 14 50 -29 48 -57 -12 -145 -64 -96 -66
-133 -8 -161 113 -55 311 -35 544 55 129 49 199 94 313 203 106 100 197 149
359 192 82 22 119 26 242 27 120 1 151 -2 177 -16 58 -32 63 -43 63 -129 0
-73 2 -82 26 -104 128 -119 516 -89 717 55 49 36 62 52 101 134 47 99 67 120
152 157 127 54 350 82 479 60 112 -19 164 -50 229 -136 85 -113 164 -151 336
-162 100 -6 235 8 316 32 71 21 155 75 177 113 19 32 19 36 3 96 -12 45 -14
69 -7 88 15 41 80 87 156 111 61 19 91 22 225 21 231 -2 335 -29 476 -126 125
-85 255 -128 450 -147 165 -16 292 2 401 57 60 31 68 45 54 93 -8 28 -24 48
-51 67 -41 29 -63 61 -74 104 -5 24 -1 30 37 53 94 55 326 85 416 54z m-1097
-558 c109 -28 204 -75 348 -171 69 -45 148 -93 176 -106 83 -37 211 -72 341
-94 68 -11 129 -23 138 -26 21 -9 19 -36 -8 -75 -37 -55 -81 -79 -147 -79 -70
0 -126 27 -229 110 -180 144 -426 223 -696 223 -181 1 -286 -27 -383 -101 -71
-54 -78 -112 -28 -234 19 -46 37 -97 41 -115 17 -80 -52 -182 -164 -242 -159
-84 -413 -102 -637 -46 -86 22 -233 97 -276 142 -20 21 -57 80 -83 130 -68
135 -130 186 -285 234 -66 21 -94 24 -230 23 -173 -1 -263 -19 -375 -73 -124
-61 -188 -140 -235 -289 -37 -118 -65 -166 -133 -228 -184 -167 -527 -261
-768 -210 -116 25 -193 78 -230 161 -24 52 -23 95 2 175 33 105 8 176 -78 223
-102 55 -270 60 -456 13 -238 -61 -428 -177 -584 -357 -48 -56 -98 -103 -124
-116 -87 -47 -208 -20 -252 54 l-19 33 44 19 c24 11 93 40 155 64 184 73 260
123 413 274 150 148 161 157 274 214 211 108 502 157 646 108 53 -18 100 -57
117 -98 13 -31 14 -48 3 -116 -17 -119 0 -166 75 -211 87 -51 277 -69 427 -40
157 30 305 98 395 180 59 54 89 106 118 206 26 88 85 148 198 200 119 55 192
71 351 77 259 10 356 -34 474 -216 66 -102 75 -111 177 -160 283 -138 709 -87
826 98 36 56 36 76 -1 161 -16 38 -30 82 -30 100 0 92 98 161 279 195 108 21
331 14 433 -14z"/>
<path d="M8448 6425 c-3 -3 -18 -8 -34 -11 -42 -8 -118 -59 -157 -107 -47 -58
-87 -124 -80 -131 4 -3 2 -6 -4 -6 -13 0 -86 -158 -78 -170 3 -4 0 -10 -5 -12
-6 -2 -13 -12 -15 -23 -2 -11 -4 -21 -5 -22 -2 -2 -4 -7 -5 -13 -1 -5 -4 -12
-5 -15 -1 -3 -3 -8 -5 -12 -1 -5 -5 -16 -9 -25 -4 -9 -9 -25 -11 -35 -2 -10
-4 -18 -5 -18 -1 0 -4 -8 -14 -50 -2 -11 -9 -32 -15 -47 -6 -16 -8 -28 -5 -28
2 0 -1 -6 -8 -14 -7 -8 -16 -12 -19 -11 -9 6 -109 -54 -109 -65 0 -6 -5 -10
-12 -10 -12 0 -21 -7 -78 -62 -19 -18 -38 -33 -42 -33 -3 0 -26 -19 -50 -42
-23 -22 -71 -67 -105 -99 -35 -31 -63 -60 -63 -64 0 -31 365 -44 835 -30 475
14 980 56 1375 115 149 23 381 64 388 70 1 1 -7 24 -18 51 -36 83 -127 209
-197 274 -71 65 -196 148 -233 155 -12 2 -28 9 -36 16 -8 6 -14 8 -14 4 0 -4
-7 -2 -15 5 -8 7 -15 9 -15 5 0 -4 -6 -2 -14 4 -8 6 -18 11 -22 10 -5 -1 -11
0 -14 1 -5 2 -19 5 -65 16 -38 9 -248 9 -295 -1 -19 -3 -44 -8 -55 -10 -11 -2
-20 -4 -20 -5 0 -2 -10 -4 -22 -5 -12 -1 -30 -6 -40 -10 -10 -4 -27 -10 -37
-12 -11 -2 -38 -14 -61 -26 -66 -37 -81 -27 -125 84 -44 114 -97 213 -157 291
-49 64 -78 87 -143 111 -50 19 -54 19 -62 12z"/>
<path d="M3503 5726 c-90 -98 -176 -245 -257 -439 -51 -120 -54 -111 49 -122
33 -4 91 -13 128 -22 38 -8 71 -12 74 -10 4 5 72 597 73 640 0 18 -22 3 -67
-47z"/>
<path d="M5475 5405 c-113 -57 -201 -281 -212 -540 -6 -151 6 -231 44 -275 21
-25 32 -30 71 -30 29 0 59 8 79 20 40 24 89 91 103 139 6 20 25 170 42 333 26
249 29 302 19 322 -24 45 -90 59 -146 31z"/>
<path d="M7413 3865 c-17 -7 -33 -22 -36 -32 -3 -10 -18 -136 -33 -281 -31
-292 -30 -302 30 -331 65 -31 145 27 186 136 69 182 66 407 -6 493 -21 25 -33
30 -67 30 -23 -1 -56 -7 -74 -15z"/>
<path d="M6496 3799 c-108 -30 -196 -247 -196 -484 0 -144 30 -205 101 -205
48 0 104 46 131 106 24 56 75 516 60 549 -13 28 -58 44 -96 34z"/>
<path d="M4724 3610 c-30 -12 -83 -77 -106 -129 -47 -110 -62 -191 -63 -331 0
-183 16 -220 98 -220 47 0 96 36 124 90 19 37 27 86 48 278 14 128 25 244 25
258 0 51 -64 79 -126 54z"/>
<path d="M10342 4202 c-43 -13 -91 -62 -121 -124 -90 -184 -102 -515 -21 -558
54 -29 129 7 169 80 21 38 29 79 52 293 30 267 29 285 -18 306 -26 12 -27 12
-61 3z"/>
<path d="M8345 3990 c-32 -12 -91 -83 -115 -137 -62 -140 -87 -400 -46 -490
20 -46 60 -69 101 -59 36 9 95 65 113 106 8 19 27 144 42 280 22 207 25 249
14 271 -19 38 -60 49 -109 29z"/>
<path d="M3805 3496 c-48 -21 -93 -79 -99 -128 -4 -24 -18 -151 -31 -283 l-26
-240 22 -17 c44 -37 135 -9 185 57 62 81 101 266 91 425 -7 104 -29 165 -68
185 -34 18 -36 18 -74 1z"/>
<path d="M2967 3431 c-87 -57 -158 -273 -159 -479 0 -145 19 -198 79 -216 34
-11 89 19 122 65 39 54 80 180 88 275 6 70 5 73 -22 97 -38 32 -41 101 -6 147
21 29 22 36 12 71 -18 59 -62 75 -114 40z"/>
</g>
</svg>
